<svg width="20" height="20" viewBox="0 0 20 20" fill="none" xmlns="http://www.w3.org/2000/svg">
<path d="M0.000632867 10.0322C0.0157846 11.3454 0.289444 12.6449 0.805987 13.8565C1.32253 15.0681 2.07184 16.1681 3.01113 17.0937C3.95043 18.0192 5.06131 18.7522 6.28036 19.2509C7.49941 19.7495 8.80275 20.0039 10.116 19.9997C12.7681 19.9911 15.2995 18.9293 17.1532 17.0479C19.0069 15.1665 20.0311 12.6196 20.0005 9.96752C19.9854 8.65432 19.7117 7.35482 19.1952 6.14322C18.6786 4.93161 17.9293 3.83162 16.99 2.90605C15.093 1.03679 12.5374 -0.00853601 9.8852 4.06876e-05C7.23305 0.00861738 4.70168 1.07039 2.84796 2.95179C0.994248 4.83318 -0.0299675 7.38008 0.000632867 10.0322ZM15.0006 9.98369L10.0583 14.9998L10.0237 11.9998L6.02368 12.0128L5.97753 8.01283L9.9775 7.99989L9.94289 4.99995L15.0006 9.98369Z" fill="white"/>
</svg>
